<svg width="54" height="70" viewBox="0 0 54 70" fill="none" xmlns="http://www.w3.org/2000/svg">
<path d="M51.1862 0H2.8138C1.26278 0 0 1.24573 0 2.77708V67.2229C0 68.7537 1.26221 70 2.8138 70H51.1862C52.7372 70 54 68.7543 54 67.2229L53.9994 2.77708C53.9994 1.24573 52.7372 0 51.1862 0H51.1862ZM51.5877 67.2212C51.5877 67.4398 51.4071 67.618 51.1856 67.618H2.81324C2.59175 67.618 2.4112 67.4398 2.4112 67.2212L2.41176 2.7768C2.41176 2.5582 2.59175 2.38 2.8138 2.38H51.1862C51.4077 2.38 51.5882 2.55764 51.5882 2.7768L51.5877 67.2212ZM37.6289 52.2563C37.6289 52.9131 37.0889 53.4461 36.4233 53.4461H17.5757C16.9095 53.4461 16.3701 52.9131 16.3701 52.2563C16.3701 51.5994 16.9095 51.0664 17.5757 51.0664H36.4219C37.0875 51.0659 37.628 51.5994 37.628 52.2563H37.6289ZM34.0952 57.6564C34.0952 58.3133 33.5552 58.8462 32.8897 58.8462H21.1099C20.4438 58.8462 19.9044 58.3133 19.9044 57.6564C19.9044 56.9995 20.4438 56.4666 21.1099 56.4666H32.8897C33.5552 56.4666 34.0952 56.9995 34.0952 57.6564ZM41.2461 23.1859H38.2508C38.0427 23.1859 37.8482 23.0398 37.7556 22.8145L36.2696 19.1931C35.442 17.178 33.5417 15.8765 31.4278 15.8765H20.1879C18.0925 15.8765 16.1995 17.1621 15.3645 19.1504L14.0546 22.2711C13.8214 22.8267 13.3128 23.1858 12.7588 23.1858H12.7543C10.6364 23.1858 8.91327 24.9617 8.91327 27.1443V31.4515C8.91327 33.1255 10.2422 34.4876 11.8762 34.4876H13.7659C14.1219 36.7161 16.0761 38.4278 18.4329 38.4278C20.7896 38.4278 22.7437 36.7166 23.0999 34.4876H30.9008C31.2568 36.7161 33.211 38.4278 35.5678 38.4278C37.9245 38.4278 39.8786 36.7166 40.2348 34.4876H42.1244C43.7578 34.4876 45.0874 33.1256 45.0874 31.4515V27.1443C45.0868 24.9617 43.3636 23.1858 41.2463 23.1858L41.2461 23.1859ZM18.4323 36.0477C17.1532 36.0477 16.1131 35.0211 16.1131 33.7588C16.1131 32.4965 17.1533 31.4699 18.4323 31.4699C19.7112 31.4699 20.7514 32.4965 20.7514 33.7588C20.7508 35.0211 19.7107 36.0477 18.4323 36.0477ZM35.5674 36.0477C34.2884 36.0477 33.2483 35.0211 33.2483 33.7588C33.2483 32.4965 34.2884 31.4699 35.5674 31.4699C36.8464 31.4699 37.8866 32.4965 37.8866 33.7588C37.8866 35.0211 36.8464 36.0477 35.5674 36.0477ZM42.6753 31.4516C42.6753 31.8075 42.4235 32.1074 42.1241 32.1074H39.9865C39.3086 30.347 37.586 29.0902 35.5675 29.0902C33.5489 29.0902 31.8263 30.347 31.1484 32.1074H22.8518C22.1739 30.347 20.4513 29.0902 18.4327 29.0902C16.4142 29.0902 14.6916 30.347 14.0136 32.1074H11.8761C11.5772 32.1074 11.3249 31.8069 11.3249 31.4516V27.1445C11.3249 26.274 11.9664 25.5655 12.7542 25.5655H12.7587C14.2917 25.5655 15.6755 24.6297 16.2829 23.1815L17.5927 20.0614C18.0531 18.9645 19.072 18.2562 20.1884 18.2562H31.4276C32.5547 18.2562 33.578 18.9745 34.0339 20.0863L35.5209 23.7078C35.984 24.8367 37.0561 25.5655 38.2511 25.5655H41.2465C42.0349 25.5655 42.6753 26.2739 42.6753 27.1445L42.6753 31.4516Z" fill="#4A7CFF"/>
</svg>
