<svg width="80" height="50" viewBox="0 0 80 50" fill="none" xmlns="http://www.w3.org/2000/svg">
<path d="M75.7365 0.000858531H4.2636C2.31659 0.000858531 0.714355 1.56782 0.714355 3.49958V46.5013C0.714355 48.4206 2.30395 50 4.2636 50H75.7365C77.6836 50 79.2858 48.433 79.2858 46.5013V3.49815C79.2858 1.56711 77.6837 0 75.7371 0L75.7365 0.000858531ZM77.1287 46.5016C77.1287 47.2549 76.5126 47.874 75.7365 47.874H4.2636C3.49942 47.874 2.8714 47.2666 2.8714 46.5016V3.49843C2.8714 2.74513 3.48751 2.12605 4.2636 2.12605H75.7365C76.5007 2.12605 77.1287 2.73339 77.1287 3.49843V46.5016Z" fill="#4A7CFF"/>
<path d="M71.9846 41.0714H60.6939C60.1202 41.0714 59.6428 41.6649 59.6428 42.4104C59.6428 43.1559 60.1087 43.7493 60.6939 43.7493L71.9846 43.75C72.5582 43.75 73.0357 43.1566 73.0357 42.4111C73.0362 41.6656 72.5582 41.0714 71.9846 41.0714V41.0714Z" fill="#4A7CFF"/>
<path d="M71.9846 35.7143H60.6939C60.1202 35.7143 59.6428 36.1099 59.6428 36.6069C59.6428 37.1039 60.1087 37.4995 60.6939 37.4995L71.9846 37.5C72.5582 37.5 73.0357 37.1044 73.0357 36.6074C73.0362 36.1099 72.5582 35.7143 71.9846 35.7143V35.7143Z" fill="#4A7CFF"/>
<path d="M71.9747 29.4643H44.6326C44.0535 29.4643 43.5715 30.0578 43.5715 30.8032C43.5715 31.5487 44.0418 32.1422 44.6326 32.1422L71.9747 32.1429C72.5538 32.1429 73.0358 31.5494 73.0358 30.8039C73.0364 30.0577 72.5538 29.4643 71.9747 29.4643V29.4643Z" fill="#4A7CFF"/>
<path d="M71.9747 23.2143H44.6326C44.0535 23.2143 43.5715 23.8078 43.5715 24.5532C43.5715 25.2987 44.0418 25.8922 44.6326 25.8922L71.9747 25.8929C72.5538 25.8929 73.0358 25.2994 73.0358 24.5539C73.0364 23.8077 72.5538 23.2143 71.9747 23.2143V23.2143Z" fill="#4A7CFF"/>
<path d="M71.9742 6.25003H44.6326C44.0535 6.25003 43.5715 6.70562 43.5715 7.27793V15.9353C43.5715 16.4963 44.0418 16.9632 44.6326 16.9632L71.9742 16.9643C72.5533 16.9643 73.0353 16.5087 73.0353 15.9364L73.0358 7.27846C73.0236 6.7056 72.5533 6.25 71.9742 6.25L71.9742 6.25003ZM70.9131 14.9079H45.6938V8.29515H70.9245L70.9239 14.9079H70.9131Z" fill="#4A7CFF"/>
<path d="M38.0233 6.25057H8.04824C7.45667 6.25057 6.96436 6.71986 6.96436 7.30937V42.6912C6.96436 43.2691 7.44476 43.75 8.04824 43.75H38.0233C38.6149 43.75 39.1072 43.2807 39.1072 42.6912V7.30937C39.1072 6.71929 38.6143 6.25 38.0233 6.25V6.25057ZM29.2143 41.6452V38.4921C29.2143 37.9142 28.7339 37.4333 28.1304 37.4333C27.527 37.4333 27.0466 37.9026 27.0466 38.4921V41.6452H19.0135V38.4921C19.0135 37.9142 18.5331 37.4333 17.9296 37.4333C17.3261 37.4333 16.8457 37.9026 16.8457 38.4921V41.6452H13.729V38.0105C13.729 33.004 17.8934 28.9361 23.0185 28.9361C28.1436 28.9361 32.3079 33.004 32.3079 38.0105V41.6452H29.2143ZM17.9539 21.86C17.9539 19.1279 20.2328 16.9017 23.0297 16.9017C25.8265 16.9017 28.1054 19.1279 28.1054 21.86C28.1054 24.5921 25.8265 26.8183 23.0297 26.8183C20.2328 26.8183 17.9539 24.5915 17.9539 21.86ZM36.9519 41.6452H34.488V38.0105C34.488 33.2927 31.4694 29.2491 27.2313 27.6124C29.0668 26.3248 30.2743 24.2304 30.2743 21.8596C30.2743 17.9601 27.034 14.7953 23.0426 14.7953C19.0508 14.7953 15.8109 17.9605 15.8109 21.8596C15.8109 24.2304 17.0185 26.3247 18.8539 27.6124C14.6158 29.2491 11.5972 33.2927 11.5972 38.0105V41.6452H9.13332L9.13276 8.35688H36.9516L36.9519 41.6452Z" fill="#4A7CFF"/>
</svg>
