<svg width="74" height="74" viewBox="0 0 74 74" fill="none" xmlns="http://www.w3.org/2000/svg">
<path d="M47.2326 74H1.15201C0.515253 74 0 73.4828 0 72.8438V1.15625C0 0.517147 0.515253 0 1.15201 0H47.2326C47.8694 0 48.3846 0.517147 48.3846 1.15625V72.8438C48.3846 73.4828 47.8694 74 47.2326 74ZM2.30403 71.6875H46.0806V2.3125H2.30403V71.6875Z" fill="#4A7CFF"/>
<path d="M72.8373 73.9997H47.2694C46.627 73.9997 46.1072 73.4803 46.1072 72.8385V17.0994C46.1072 16.4576 46.627 15.9382 47.2694 15.9382H72.8373C73.4797 15.9382 73.9995 16.4576 73.9995 17.0994V72.8385C73.9995 73.4803 73.4797 73.9997 72.8373 73.9997ZM48.4315 71.6773H71.6751V18.2606H48.4315V71.6773Z" fill="#4A7CFF"/>
<path d="M24.1923 32.4463C14.6186 32.4463 6.83081 26.7004 6.83081 19.638C6.83081 12.5757 14.6186 6.83091 24.1923 6.83091C33.7661 6.83091 41.5539 12.5757 41.5539 19.638C41.5539 26.7004 33.7661 32.4463 24.1923 32.4463ZM24.1923 9.11709C15.8958 9.11709 9.14568 13.8368 9.14568 19.6375C9.14568 25.4392 15.8958 30.159 24.1923 30.159C32.4888 30.159 39.239 25.4392 39.239 19.6375C39.239 13.8368 32.4888 9.11709 24.1923 9.11709Z" fill="#4A7CFF"/>
<path d="M24.1926 32.4463C18.3856 32.4463 13.6619 26.7004 13.6619 19.638C13.6619 12.5757 18.3856 6.83091 24.1926 6.83091C29.9996 6.83091 34.7234 12.5757 34.7234 19.638C34.7234 26.7004 29.9996 32.4463 24.1926 32.4463ZM24.1926 9.11709C19.6768 9.11709 16.002 13.8368 16.002 19.6375C16.002 25.4392 19.6768 30.159 24.1926 30.159C28.7084 30.159 32.3832 25.4392 32.3832 19.6375C32.3832 13.8368 28.7084 9.11709 24.1926 9.11709Z" fill="#4A7CFF"/>
<path d="M24.4766 32.4463C23.8473 32.4463 23.3381 31.9349 23.3381 31.3029V7.97426C23.3381 7.34229 23.8473 6.83091 24.4766 6.83091C25.1059 6.83091 25.6151 7.34229 25.6151 7.97426V31.3029C25.6151 31.9349 25.1059 32.4463 24.4766 32.4463Z" fill="#4A7CFF"/>
<path d="M40.4039 20.4924H7.98082C7.34517 20.4924 6.83081 19.9832 6.83081 19.3539C6.83081 18.7246 7.34517 18.2155 7.98082 18.2155H40.4039C41.0395 18.2155 41.5539 18.7246 41.5539 19.3539C41.5539 19.9832 41.0395 20.4924 40.4039 20.4924Z" fill="#4A7CFF"/>
<path d="M40.3885 52.9387H18.2427C17.5985 52.9387 17.0771 52.4295 17.0771 51.8003C17.0771 51.171 17.5985 50.6618 18.2427 50.6618H40.3885C41.0328 50.6618 41.5541 51.171 41.5541 51.8003C41.5541 52.4295 41.0328 52.9387 40.3885 52.9387Z" fill="#4A7CFF"/>
<path d="M11.3849 55.2153H6.83109C6.20182 55.2153 5.69263 54.7061 5.69263 54.0769V49.523C5.69263 48.8937 6.20182 48.3845 6.83109 48.3845H11.3849C12.0142 48.3845 12.5234 48.8937 12.5234 49.523V54.0769C12.5234 54.7061 12.0142 55.2153 11.3849 55.2153ZM7.96955 52.9384H10.2465V50.6615H7.96955V52.9384Z" fill="#4A7CFF"/>
<path d="M40.3885 41.5542H18.2427C17.5985 41.5542 17.0771 41.045 17.0771 40.4157C17.0771 39.7865 17.5985 39.2773 18.2427 39.2773H40.3885C41.0328 39.2773 41.5541 39.7865 41.5541 40.4157C41.5541 41.045 41.0328 41.5542 40.3885 41.5542Z" fill="#4A7CFF"/>
<path d="M11.3849 43.8308H6.83109C6.20182 43.8308 5.69263 43.3216 5.69263 42.6923V38.1385C5.69263 37.5092 6.20182 37 6.83109 37H11.3849C12.0142 37 12.5234 37.5092 12.5234 38.1385V42.6923C12.5234 43.3216 12.0142 43.8308 11.3849 43.8308ZM7.96955 41.5538H10.2465V39.2769H7.96955V41.5538Z" fill="#4A7CFF"/>
<path d="M40.3885 64.3233H18.2427C17.5985 64.3233 17.0771 63.8141 17.0771 63.1848C17.0771 62.5556 17.5985 62.0464 18.2427 62.0464H40.3885C41.0328 62.0464 41.5541 62.5556 41.5541 63.1848C41.5541 63.8141 41.0328 64.3233 40.3885 64.3233Z" fill="#4A7CFF"/>
<path d="M11.3849 66.5999H6.83109C6.20182 66.5999 5.69263 66.0907 5.69263 65.4614V60.9076C5.69263 60.2783 6.20182 59.7691 6.83109 59.7691H11.3849C12.0142 59.7691 12.5234 60.2783 12.5234 60.9076V65.4614C12.5234 66.0907 12.0142 66.5999 11.3849 66.5999ZM7.96955 64.3229H10.2465V62.046H7.96955V64.3229Z" fill="#4A7CFF"/>
<path d="M59.7693 40.4151C59.1401 40.4151 58.6309 39.9059 58.6309 39.2766V24.4766C58.6309 23.8474 59.1401 23.3382 59.7693 23.3382C60.3986 23.3382 60.9078 23.8474 60.9078 24.4766V39.2766C60.9078 39.9059 60.3986 40.4151 59.7693 40.4151Z" fill="#4A7CFF"/>
<path d="M65.4357 35.861C65.0864 35.861 64.7404 35.7083 64.5117 35.4162L60.0535 29.7418L55.5953 35.4162C55.2038 35.9156 54.4733 36.0092 53.9612 35.6235C53.4514 35.24 53.357 34.5232 53.7496 34.0227L59.1306 27.1734C59.5699 26.6137 60.5371 26.6137 60.9763 27.1734L66.3574 34.0227C66.75 34.5232 66.6555 35.24 66.1457 35.6235C65.933 35.7841 65.6838 35.861 65.4357 35.861Z" fill="#4A7CFF"/>
<path d="M62.0458 40.4151H57.492C56.8627 40.4151 56.3535 39.9059 56.3535 39.2766C56.3535 38.6474 56.8627 38.1382 57.492 38.1382H62.0458C62.6751 38.1382 63.1843 38.6474 63.1843 39.2766C63.1843 39.9059 62.6751 40.4151 62.0458 40.4151Z" fill="#4A7CFF"/>
<path d="M65.4613 48.3842H54.0767C53.4474 48.3842 52.9382 47.875 52.9382 47.2457C52.9382 46.6165 53.4474 46.1073 54.0767 46.1073H65.4613C66.0906 46.1073 66.5998 46.6165 66.5998 47.2457C66.5998 47.875 66.0906 48.3842 65.4613 48.3842Z" fill="#4A7CFF"/>
<path d="M65.4613 55.2151H54.0767C53.4474 55.2151 52.9382 54.7059 52.9382 54.0766C52.9382 53.4474 53.4474 52.9382 54.0767 52.9382H65.4613C66.0906 52.9382 66.5998 53.4474 66.5998 54.0766C66.5998 54.7059 66.0906 55.2151 65.4613 55.2151Z" fill="#4A7CFF"/>
<path d="M65.4613 62.046H54.0767C53.4474 62.046 52.9382 61.5368 52.9382 60.9076C52.9382 60.2783 53.4474 59.7691 54.0767 59.7691H65.4613C66.0906 59.7691 66.5998 60.2783 66.5998 60.9076C66.5998 61.5368 66.0906 62.046 65.4613 62.046Z" fill="#4A7CFF"/>
</svg>
