<svg width="16" height="16" viewBox="0 0 16 16" fill="none" xmlns="http://www.w3.org/2000/svg">
<path d="M7.21172 11.4127L11.4492 7.17519L10.3805 6.10645L7.21172 9.2752L5.61797 7.68145L4.54922 8.7502L7.21172 11.4127ZM7.99922 15.5002C7.06172 15.5002 6.18372 15.3222 5.36522 14.9662C4.54622 14.6097 3.83372 14.1282 3.22772 13.5217C2.62122 12.9157 2.13972 12.2032 1.78322 11.3842C1.42722 10.5657 1.24922 9.68769 1.24922 8.7502C1.24922 7.8127 1.42722 6.93445 1.78322 6.11545C2.13972 5.29695 2.62122 4.58445 3.22772 3.97795C3.83372 3.37195 4.54622 2.89095 5.36522 2.53495C6.18372 2.17845 7.06172 2.0002 7.99922 2.0002C8.93672 2.0002 9.81497 2.17845 10.634 2.53495C11.4525 2.89095 12.165 3.37195 12.7715 3.97795C13.3775 4.58445 13.8587 5.29695 14.2152 6.11545C14.5712 6.93445 14.7492 7.8127 14.7492 8.7502C14.7492 9.68769 14.5712 10.5657 14.2152 11.3842C13.8587 12.2032 13.3775 12.9157 12.7715 13.5217C12.165 14.1282 11.4525 14.6097 10.634 14.9662C9.81497 15.3222 8.93672 15.5002 7.99922 15.5002ZM3.19922 0.762695L4.24922 1.8127L1.06172 5.0002L0.0117188 3.9502L3.19922 0.762695ZM12.7992 0.762695L15.9867 3.9502L14.9367 5.0002L11.7492 1.8127L12.7992 0.762695Z" fill="currentColor"/>
</svg>
