<svg width="102" height="38" viewBox="0 0 102 38" fill="none" xmlns="http://www.w3.org/2000/svg">
<g clip-path="url(#clip0_121_712)">
<path d="M58.7969 18.4869C58.7446 17.463 58.6249 16.4436 58.4385 15.4352C58.2598 14.4643 57.8787 13.541 57.3196 12.7243C56.7188 11.8972 55.9125 11.238 54.979 10.8106C53.7338 10.2795 52.3841 10.0318 51.0295 10.0858C49.5654 10.0124 48.1109 10.3571 46.8386 11.0788C45.8582 11.6925 45.0486 12.5398 44.4836 13.5433C43.948 14.523 43.5985 15.5917 43.4523 16.6965C43.3081 17.7002 43.2324 18.7125 43.2256 19.7264C43.2239 20.9024 43.3045 22.077 43.4669 23.2419C43.6127 24.3211 43.9733 25.3608 44.5275 26.3008C45.1022 27.2292 45.9249 27.9818 46.9045 28.4754C48.2173 29.0791 49.6568 29.3625 51.1027 29.3017C51.5562 29.3017 52.0681 29.3017 52.624 29.222C53.1798 29.1423 53.743 29.0988 54.2989 29.0118C54.8548 28.9248 55.3813 28.8161 55.8933 28.6856C56.3379 28.5803 56.7733 28.4397 57.1952 28.2652C57.3812 28.2035 57.5367 28.0742 57.6303 27.9034C57.724 27.7325 57.7488 27.5329 57.6998 27.3446L57.5462 26.5038C57.5385 26.3866 57.5001 26.2735 57.4346 26.1756C57.3692 26.0777 57.2791 25.9984 57.1732 25.9456C56.9597 25.8834 56.7349 25.8685 56.515 25.9021C56.1931 25.9529 55.7836 26.0036 55.3667 26.0544L53.999 26.1776L52.5362 26.2936C52.0608 26.2936 51.6366 26.3515 51.2636 26.3515C50.5226 26.3657 49.7835 26.2729 49.0694 26.0761C48.5025 25.9155 47.9945 25.5958 47.6066 25.1556C47.1863 24.6484 46.8997 24.0456 46.7728 23.4014C46.5859 22.5386 46.4854 21.6597 46.473 20.7774H56.9612C57.2562 20.814 57.5555 20.7651 57.8229 20.6364C58.0904 20.5077 58.3144 20.3049 58.4678 20.0525C58.7032 19.5576 58.8065 19.011 58.7677 18.4651L58.7969 18.4869ZM48.9231 13.2969C49.5637 13.0299 50.2544 12.9014 50.9491 12.92C51.7588 12.8842 52.565 13.046 53.2969 13.3911C53.8446 13.6716 54.3066 14.0921 54.6353 14.6089C54.9582 15.1351 55.1743 15.7186 55.2716 16.3268C55.3741 16.9184 55.4303 17.517 55.4398 18.1172H46.4949C46.536 17.41 46.6462 16.7084 46.824 16.0223C46.9563 15.4248 47.2047 14.8586 47.5554 14.3552C47.8968 13.8977 48.3498 13.5336 48.8719 13.2969" fill="#282828"/>
<path d="M76.2844 12.6874C75.7175 11.8357 74.9151 11.1638 73.9732 10.752C72.815 10.2775 71.5689 10.0502 70.3162 10.0851C69.5183 10.0956 68.7229 10.1757 67.9392 10.3243C66.9578 10.5164 65.9941 10.7879 65.0575 11.1362V2.34366C64.2176 2.34366 63.4121 2.67435 62.8182 3.26296C62.2243 3.85156 61.8906 4.64988 61.8906 5.4823V26.7496C61.8905 27.0497 61.9373 27.348 62.0295 27.6339C62.1063 27.8131 62.2244 27.9721 62.3743 28.0979C62.5241 28.2238 62.7017 28.3131 62.8926 28.3588C63.372 28.5195 63.8605 28.6526 64.3554 28.7574C64.9113 28.8662 65.511 28.9604 66.14 29.0329C66.769 29.1054 67.4199 29.1706 68.0562 29.2068C68.6925 29.2431 69.3142 29.2648 69.892 29.2648C71.1934 29.3015 72.489 29.0797 73.7025 28.6125C74.6772 28.2134 75.5223 27.5564 76.1455 26.7133C76.783 25.8004 77.2146 24.7621 77.4108 23.669C77.8703 21.0307 77.8703 18.3338 77.4108 15.6955C77.2314 14.6266 76.8385 13.6039 76.2551 12.6874M74.4194 19.9359C74.4502 21.0906 74.3371 22.2445 74.0829 23.3718C73.9269 24.0789 73.6091 24.741 73.154 25.3071C72.769 25.7373 72.2573 26.0365 71.6912 26.1625C71.0423 26.3009 70.3802 26.369 69.7165 26.3654C68.912 26.3654 68.0782 26.3654 67.2444 26.2712C66.4106 26.177 65.7085 26.1262 65.0502 26.0102V13.7094C65.9531 13.455 66.8717 13.2589 67.8002 13.1223C68.6698 12.9954 69.547 12.9276 70.4259 12.9193C71.0814 12.8996 71.7331 13.0234 72.3348 13.2818C72.8512 13.5367 73.2772 13.9411 73.5563 14.4415C73.9129 15.12 74.1434 15.8566 74.2365 16.6161C74.3867 17.7114 74.4551 18.8162 74.4413 19.9214" fill="#282828"/>
<path d="M92.3081 19.3055C91.6638 18.8823 90.9478 18.5778 90.1944 18.4067C89.4191 18.2183 88.6 18.0588 87.7589 17.9355C86.9178 17.8123 86.3838 17.6891 85.8791 17.5804C85.4764 17.5049 85.0887 17.3653 84.7309 17.1672C84.4848 17.0238 84.2865 16.8121 84.1604 16.5583C84.0286 16.2214 83.9688 15.861 83.9848 15.5C83.9541 15.1373 84.0036 14.7723 84.1299 14.4305C84.2563 14.0887 84.4564 13.7784 84.7162 13.5212C85.1916 13.1225 86.1205 12.9195 87.4882 12.9195C88.314 12.9212 89.1391 12.9647 89.9604 13.05L92.4178 13.2965C92.6623 13.3237 92.9097 13.309 93.1492 13.253C93.2583 13.2165 93.3553 13.1514 93.43 13.0646C93.5047 12.9778 93.5543 12.8726 93.5734 12.7601L93.7196 11.8758C93.7814 11.6862 93.7673 11.4804 93.6802 11.3009C93.593 11.1214 93.4396 10.9821 93.2516 10.9117C92.7992 10.7519 92.3376 10.6188 91.8693 10.513C91.3719 10.4043 90.8526 10.3173 90.3333 10.2521C89.814 10.1868 89.3094 10.1434 88.8267 10.1216C88.3439 10.0999 87.9124 10.1216 87.5394 10.1216C85.7936 10.0275 84.0669 10.5205 82.6391 11.5206C82.0326 12.0146 81.5527 12.6439 81.2387 13.357C80.9247 14.07 80.7855 14.8466 80.8325 15.6233C80.7956 16.4705 80.9902 17.3119 81.3957 18.0588C81.7581 18.6694 82.2589 19.188 82.8585 19.5737C83.5212 19.9721 84.2414 20.2679 84.9942 20.4508C85.8138 20.6565 86.6439 20.8186 87.4809 20.9365C88.2123 21.0669 88.8413 21.1902 89.3167 21.3134C89.7062 21.4007 90.0726 21.5687 90.3919 21.8063C90.6437 22.0144 90.8228 22.296 90.9038 22.6109C91.0097 23.045 91.0589 23.4908 91.0501 23.9374C91.0827 24.3101 91.0208 24.685 90.87 25.028C90.7193 25.3711 90.4845 25.6714 90.187 25.9017C89.2932 26.3855 88.277 26.6021 87.2615 26.5251C86.9323 26.5251 86.5301 26.5251 86.1205 26.4888C85.711 26.4526 85.2282 26.4381 84.7309 26.3946C84.2335 26.3511 83.7289 26.3149 83.2681 26.2641C82.8073 26.2134 82.3392 26.1699 81.9662 26.1192C81.7608 26.0867 81.5505 26.1016 81.3518 26.1627C81.2451 26.2151 81.1539 26.2941 81.0872 26.3919C81.0205 26.4898 80.9807 26.6031 80.9715 26.7208L80.8252 27.5037C80.7826 27.6926 80.8102 27.8905 80.9029 28.0609C80.9956 28.2313 81.1472 28.3629 81.3299 28.4315C81.7322 28.5972 82.1482 28.7282 82.5732 28.8229C83.0556 28.942 83.5438 29.0364 84.036 29.1056C84.5553 29.1781 85.0892 29.2288 85.6158 29.2505C86.1424 29.2723 86.6544 29.2505 87.1371 29.2505C88.0274 29.2529 88.9153 29.1581 89.7847 28.9679C90.6092 28.7931 91.3948 28.4714 92.1033 28.0183C92.7816 27.5723 93.3411 26.9705 93.7343 26.2641C94.1227 25.4277 94.3282 24.5192 94.337 23.5985C94.3458 22.6777 94.1579 21.7656 93.7855 20.922C93.4378 20.2733 92.9357 19.7184 92.3227 19.3055" fill="#282828"/>
<path d="M100.735 10.4555H99.1915C98.9845 10.4413 98.778 10.4893 98.599 10.5932C98.508 10.6725 98.4383 10.773 98.3962 10.8856C98.354 10.9982 98.3409 11.1194 98.3577 11.2383V28.9538C98.7684 28.9548 99.1753 28.8754 99.555 28.7203C99.9348 28.5652 100.28 28.3373 100.571 28.0498C100.861 27.7623 101.092 27.4208 101.25 27.0448C101.407 26.6689 101.488 26.2657 101.488 25.8587V11.2383C101.496 11.1384 101.483 11.0379 101.45 10.9431C101.417 10.8484 101.364 10.7614 101.296 10.6879C101.227 10.6143 101.144 10.5556 101.051 10.5156C100.958 10.4756 100.858 10.4552 100.757 10.4555" fill="#282828"/>
<path d="M45.9831 36.7456C45.952 36.7547 45.919 36.7547 45.888 36.7456H43.4232C43.3427 36.7456 43.2988 36.7456 43.2988 36.6368V32.237C43.2988 32.1572 43.3427 32.121 43.4232 32.121H45.8441C45.9245 32.121 45.9684 32.1573 45.9684 32.2297V32.4979C45.9684 32.5777 45.9245 32.6139 45.8367 32.6139H43.8401V34.0636H45.6392C45.6549 34.0625 45.6706 34.0648 45.6853 34.0702C45.7 34.0757 45.7133 34.0842 45.7244 34.0952C45.7355 34.1062 45.7441 34.1194 45.7496 34.134C45.7551 34.1485 45.7574 34.1641 45.7563 34.1796V34.4478C45.7588 34.4636 45.7575 34.4797 45.7525 34.4949C45.7475 34.5101 45.739 34.524 45.7275 34.5353C45.7161 34.5466 45.7022 34.5551 45.6868 34.56C45.6715 34.565 45.6552 34.5662 45.6392 34.5638H43.8401V36.2237H45.8953C45.9112 36.2212 45.9275 36.2225 45.9428 36.2275C45.9581 36.2324 45.9721 36.2409 45.9835 36.2522C45.9949 36.2635 46.0035 36.2773 46.0085 36.2925C46.0135 36.3077 46.0148 36.3239 46.0123 36.3397V36.6079C46.0183 36.6216 46.0215 36.6364 46.0215 36.6514C46.0215 36.6663 46.0183 36.6811 46.0123 36.6948" fill="#282828"/>
<path d="M49.4201 36.7684H49.1276C49.0471 36.7684 49.0033 36.7685 49.0033 36.6525V36.4133L48.7838 36.5437L48.4839 36.6887C48.3712 36.7392 48.2536 36.7781 48.1329 36.8047C48.0119 36.8403 47.8861 36.8574 47.7598 36.8555C47.5717 36.8618 47.3845 36.8271 47.2113 36.754C47.0825 36.6965 46.9734 36.6034 46.8969 36.4858C46.8204 36.3625 46.7728 36.2238 46.7578 36.0799C46.7461 35.9085 46.7461 35.7366 46.7578 35.5652V33.5066C46.7578 33.4269 46.7579 33.3834 46.8749 33.3834H47.182C47.2625 33.3834 47.2991 33.4269 47.2991 33.5066V35.5725C47.2856 35.705 47.2856 35.8386 47.2991 35.9711C47.3086 36.0601 47.3414 36.145 47.3942 36.2176C47.4371 36.2786 47.4986 36.3243 47.5697 36.3481C47.6619 36.3608 47.7554 36.3608 47.8476 36.3481C47.9466 36.3457 48.0449 36.3311 48.1402 36.3046L48.4766 36.1886L48.7911 36.0581L49.0251 35.9421V33.4776C49.0251 33.3979 49.0252 33.3544 49.1422 33.3544H49.4348C49.5152 33.3544 49.5518 33.3979 49.5518 33.4776V36.638C49.5543 36.6538 49.553 36.6699 49.548 36.6851C49.543 36.7003 49.5344 36.7142 49.523 36.7255C49.5116 36.7368 49.4977 36.7453 49.4824 36.7502C49.467 36.7552 49.4507 36.7565 49.4348 36.754" fill="#282828"/>
<path d="M52.1698 33.8547C52.0662 33.8736 51.9637 33.8977 51.8626 33.9271L51.5335 34.0141L51.2409 34.1083L51.0434 34.1881V36.6526C51.0459 36.6684 51.0447 36.6845 51.0397 36.6998C51.0347 36.715 51.0261 36.7288 51.0147 36.7401C51.0033 36.7514 50.9893 36.7598 50.974 36.7648C50.9586 36.7697 50.9424 36.771 50.9265 36.7685H50.6193C50.6033 36.771 50.587 36.7697 50.5717 36.7648C50.5563 36.7598 50.5424 36.7514 50.531 36.7401C50.5195 36.7288 50.511 36.715 50.506 36.6998C50.501 36.6845 50.4997 36.6684 50.5022 36.6526V33.4922C50.5022 33.4125 50.5022 33.369 50.6193 33.369H50.9191C50.936 33.3665 50.9532 33.3681 50.9694 33.3734C50.9856 33.3787 51.0004 33.3878 51.0124 33.3997C51.0245 33.4117 51.0336 33.4263 51.039 33.4423C51.0443 33.4584 51.0459 33.4755 51.0434 33.4922V33.7749C51.1044 33.7266 51.1706 33.6853 51.2409 33.6517L51.5115 33.5212C51.6084 33.4751 51.7086 33.4363 51.8114 33.4052L52.104 33.3183C52.104 33.3183 52.1698 33.3183 52.1844 33.3183C52.1924 33.3443 52.1924 33.372 52.1844 33.398V33.6952C52.1904 33.7105 52.1925 33.727 52.1905 33.7433C52.1886 33.7596 52.1826 33.7752 52.1733 33.7887C52.1639 33.8023 52.1514 33.8133 52.1368 33.821C52.1221 33.8287 52.1059 33.8328 52.0894 33.8329" fill="#282828"/>
<path d="M55.4618 35.0137C55.4725 35.2213 55.4725 35.4294 55.4618 35.637C55.4435 35.8424 55.3838 36.042 55.2863 36.2242C55.1853 36.408 55.033 36.559 54.8475 36.6591C54.5928 36.7818 54.3112 36.8391 54.0283 36.8258C53.7549 36.8387 53.4828 36.7812 53.2384 36.6591C53.0607 36.557 52.9142 36.4092 52.8142 36.2314C52.7167 36.0493 52.657 35.8496 52.6387 35.6443C52.6387 35.4268 52.6387 35.2166 52.6387 35.0137C52.6396 34.8292 52.6542 34.6451 52.6825 34.4628C52.7088 34.265 52.7708 34.0735 52.8654 33.8974C52.9695 33.7228 53.1152 33.5759 53.2896 33.4697C53.5158 33.3551 53.7671 33.2978 54.021 33.303C54.2872 33.2927 54.5522 33.3422 54.7962 33.448C54.9777 33.5364 55.1318 33.6716 55.2424 33.8394C55.3492 34.0066 55.419 34.1944 55.4472 34.3903C55.4766 34.5968 55.4913 34.8051 55.4911 35.0137M54.9499 35.0137C54.9625 34.8278 54.9625 34.6413 54.9499 34.4555C54.9364 34.3135 54.8887 34.1768 54.8109 34.0568C54.744 33.9517 54.6474 33.8685 54.533 33.8177C54.3837 33.761 54.2246 33.7339 54.0649 33.7379C53.9121 33.733 53.7601 33.7602 53.6187 33.8177C53.5097 33.8736 53.4166 33.9559 53.3481 34.0568C53.2773 34.1795 53.2324 34.3151 53.2164 34.4555C53.2038 34.6413 53.2038 34.8278 53.2164 35.0137C53.2033 35.1995 53.2033 35.386 53.2164 35.5718C53.2312 35.7125 53.2761 35.8484 53.3481 35.9705C53.4138 36.0757 53.5074 36.161 53.6187 36.2169C53.7601 36.2744 53.9121 36.3016 54.0649 36.2967C54.2246 36.3007 54.3837 36.2736 54.533 36.2169C54.6468 36.1688 54.7436 36.088 54.8109 35.985C54.8875 35.8644 54.9351 35.728 54.9499 35.5863C54.963 35.3957 54.963 35.2043 54.9499 35.0137Z" fill="#282828"/>
<path d="M59.0753 35.0348C59.0784 35.2924 59.0564 35.5497 59.0095 35.8032C58.9816 36.0059 58.9066 36.1995 58.7902 36.3685C58.6872 36.5212 58.5426 36.6419 58.3732 36.7165C58.1597 36.8018 57.9303 36.8413 57.7003 36.8324C57.5506 36.8306 57.4014 36.8161 57.2542 36.7889C57.0727 36.7613 56.8956 36.7101 56.7276 36.6367V37.8617C56.7369 37.8949 56.7369 37.93 56.7276 37.9632C56.6945 37.9748 56.6583 37.9748 56.6252 37.9632H56.3326C56.2814 37.9632 56.2449 37.9632 56.2303 37.9632C56.2201 37.9301 56.2201 37.8948 56.2303 37.8617V33.5126C56.2278 33.4958 56.2293 33.4788 56.2347 33.4627C56.24 33.4467 56.2492 33.432 56.2613 33.4201C56.2733 33.4081 56.288 33.3991 56.3042 33.3938C56.3204 33.3885 56.3377 33.3869 56.3546 33.3894H56.6471C56.6631 33.3869 56.6794 33.3882 56.6947 33.3931C56.7101 33.3981 56.724 33.4066 56.7354 33.4179C56.7468 33.4292 56.7554 33.443 56.7604 33.4582C56.7653 33.4734 56.7667 33.4895 56.7642 33.5053V33.759L56.9762 33.6358C57.0567 33.5851 57.1591 33.5416 57.2615 33.4909L57.6052 33.3749C57.7215 33.3403 57.8423 33.3232 57.9637 33.3241C58.1535 33.3163 58.3422 33.3562 58.5122 33.4401C58.6591 33.5156 58.7809 33.6314 58.8633 33.7736C58.9568 33.9398 59.0187 34.1216 59.0461 34.3099C59.0853 34.5496 59.1049 34.792 59.1046 35.0348M58.5487 35.0348C58.563 34.82 58.563 34.6045 58.5487 34.3897C58.532 34.2573 58.4898 34.1293 58.4245 34.0127C58.3817 33.9332 58.3117 33.8715 58.227 33.8388C58.1376 33.8085 58.0435 33.7938 57.949 33.7953C57.85 33.7971 57.7517 33.8117 57.6565 33.8388L57.3274 33.9403L57.0275 34.078L56.7861 34.1939V36.2163C56.9641 36.2672 57.1448 36.3083 57.3274 36.3395C57.4849 36.3619 57.6436 36.374 57.8027 36.3758C57.9307 36.3769 58.0576 36.3523 58.1757 36.3033C58.2804 36.2589 58.3659 36.1794 58.4171 36.0786C58.4847 35.9494 58.5292 35.8096 58.5487 35.6654C58.5621 35.4554 58.5621 35.2448 58.5487 35.0348Z" fill="#282828"/>
<path d="M62.4754 34.8465C62.4825 34.9435 62.465 35.0407 62.4242 35.1292C62.3955 35.1686 62.3565 35.1995 62.3114 35.2187C62.2663 35.2378 62.2169 35.2445 62.1683 35.2379H60.1788C60.1801 35.4158 60.1998 35.5931 60.2374 35.7671C60.2623 35.8919 60.3175 36.0088 60.3983 36.1077C60.4737 36.1927 60.573 36.2533 60.6835 36.2817C60.8187 36.3218 60.9593 36.3413 61.1004 36.3397H61.3418H61.6124H61.8684H62.0805C62.1166 36.3313 62.1541 36.3313 62.1901 36.3397C62.1901 36.3397 62.2341 36.3397 62.2414 36.4267V36.5789C62.2507 36.6077 62.2483 36.6391 62.2346 36.6661C62.2209 36.6932 62.1972 36.7139 62.1683 36.7238C62.0902 36.7553 62.0094 36.7796 61.9269 36.7963C61.8281 36.8231 61.728 36.8448 61.627 36.8616L61.3198 36.8978H61.0419C60.7748 36.9106 60.5086 36.8583 60.2666 36.7456C60.0892 36.6568 59.94 36.5214 59.8351 36.3542C59.7325 36.1804 59.6654 35.9882 59.6376 35.7888C59.6079 35.5726 59.5933 35.3546 59.5938 35.1364C59.5952 34.9496 59.6098 34.7631 59.6376 34.5783C59.6629 34.3747 59.7275 34.1779 59.8278 33.9984C59.9275 33.8123 60.0767 33.6569 60.2593 33.549C60.4914 33.4142 60.7588 33.3512 61.0273 33.3677C61.2778 33.3569 61.5276 33.4015 61.7587 33.4983C61.9283 33.5755 62.0745 33.6954 62.1828 33.8462C62.2863 33.9965 62.3562 34.167 62.3876 34.3463C62.4248 34.5327 62.4468 34.7218 62.4534 34.9117M61.883 34.8682C61.8939 34.7452 61.8939 34.6216 61.883 34.4986C61.8615 34.3811 61.8194 34.2682 61.7587 34.1651C61.6947 34.0648 61.6034 33.9844 61.4954 33.9332C61.3576 33.8633 61.2037 33.8308 61.0492 33.8389C60.9141 33.8377 60.78 33.8623 60.6542 33.9114C60.5538 33.9611 60.4662 34.033 60.3983 34.1216C60.328 34.2169 60.2783 34.3255 60.252 34.4406C60.2131 34.58 60.1909 34.7236 60.1861 34.8682H61.883Z" fill="#282828"/>
<path d="M65.327 36.3906C65.1399 36.4999 64.947 36.5991 64.7492 36.6878C64.5176 36.7833 64.2686 36.8302 64.0178 36.8255C63.8851 36.8393 63.751 36.8245 63.6248 36.7819C63.4985 36.7394 63.383 36.6702 63.2864 36.5791C63.1237 36.3735 63.0454 36.1146 63.067 35.8542C63.0548 35.6939 63.0757 35.5327 63.1285 35.3806C63.1813 35.2285 63.2649 35.0888 63.3741 34.9699C63.6608 34.7544 64.0175 34.6512 64.3761 34.68H65.349V34.448C65.36 34.3513 65.35 34.2535 65.3198 34.161C65.2895 34.0684 65.2396 33.9834 65.1734 33.9116C64.9771 33.797 64.7494 33.7463 64.5225 33.7666H64.303H64.0471H63.7764H63.5351C63.4547 33.7666 63.4034 33.7666 63.3888 33.7014V33.5202C63.3817 33.508 63.378 33.4943 63.378 33.4803C63.378 33.4663 63.3817 33.4526 63.3888 33.4404C63.414 33.4059 63.45 33.3804 63.4912 33.3679L63.7472 33.3027L64.0544 33.2592C64.1615 33.252 64.269 33.252 64.3761 33.2592H64.6614C64.889 33.2521 65.1162 33.2815 65.3343 33.3462C65.4828 33.3974 65.6161 33.4846 65.722 33.5999C65.8105 33.7135 65.8661 33.8488 65.8829 33.9913C65.8987 34.1601 65.8987 34.33 65.8829 34.4987V36.1079C65.8774 36.1609 65.8774 36.2143 65.8829 36.2673C65.8747 36.2958 65.8747 36.3259 65.8829 36.3544C65.903 36.3734 65.9285 36.3861 65.956 36.3906H66.0877C66.1681 36.3906 66.2046 36.3906 66.2046 36.4848V36.6588C66.2121 36.6849 66.2121 36.7125 66.2046 36.7385C66.1714 36.7652 66.1304 36.7805 66.0877 36.782C66.0049 36.789 65.9217 36.789 65.8389 36.782C65.7109 36.7907 65.5833 36.7603 65.4732 36.695C65.3828 36.612 65.3279 36.4979 65.3197 36.3761L65.327 36.3906ZM65.327 35.1294H64.2957C64.1114 35.1209 63.9292 35.1717 63.7764 35.2743C63.7061 35.3498 63.6528 35.4393 63.62 35.5367C63.5872 35.6342 63.5757 35.7375 63.5863 35.8397C63.5721 35.9826 63.614 36.1253 63.7033 36.2384C63.827 36.3238 63.9775 36.3624 64.1275 36.3471C64.226 36.3453 64.3241 36.3332 64.4201 36.3109C64.5292 36.2862 64.6367 36.2547 64.7418 36.2166L65.0564 36.0861L65.327 35.9485V35.1294Z" fill="#282828"/>
<path d="M69.424 36.7679H69.1241C69.1082 36.7703 69.0919 36.7691 69.0766 36.7641C69.0613 36.7592 69.0473 36.7507 69.0359 36.7394C69.0245 36.7281 69.0159 36.7143 69.0109 36.6991C69.0059 36.6839 69.0046 36.6677 69.0071 36.6519V34.5788C69.0167 34.4485 69.0167 34.3177 69.0071 34.1874C68.9918 34.0976 68.9595 34.0116 68.9121 33.9337C68.8687 33.8747 68.8071 33.8314 68.7365 33.8105C68.6486 33.7853 68.5574 33.7731 68.4659 33.7743C68.3639 33.7757 68.2627 33.7928 68.166 33.825L67.8296 33.9337L67.5151 34.0642L67.2884 34.1729V36.6519C67.2884 36.7316 67.2445 36.7679 67.164 36.7679H66.8714C66.7983 36.7679 66.7617 36.7679 66.7617 36.6519V33.4915C66.7617 33.4118 66.7617 33.3683 66.8714 33.3683H67.164C67.1952 33.36 67.228 33.36 67.2591 33.3683C67.2591 33.3683 67.2591 33.4118 67.2591 33.4625V33.709L67.4785 33.5785C67.5662 33.5278 67.6687 33.4843 67.7784 33.4335L68.1221 33.3176C68.2443 33.2888 68.3695 33.2742 68.4951 33.2741C68.6828 33.2643 68.8703 33.2964 69.0437 33.3683C69.1697 33.4269 69.2763 33.52 69.3509 33.6365C69.4264 33.7629 69.4737 33.9037 69.4898 34.0497C69.5018 34.221 69.5018 34.393 69.4898 34.5643V36.6229C69.4898 36.7027 69.446 36.7389 69.3655 36.7389" fill="#282828"/>
<path d="M75.4574 35.4992C75.4588 35.6805 75.424 35.8603 75.355 36.0283C75.2909 36.1765 75.1962 36.3098 75.0771 36.4197C74.9588 36.532 74.8198 36.6206 74.6676 36.6807C74.5111 36.7395 74.3449 36.7689 74.1775 36.7677H72.4807C72.4431 36.7822 72.4013 36.7822 72.3637 36.7677C72.3572 36.7541 72.3538 36.7392 72.3538 36.7242C72.3538 36.7091 72.3572 36.6943 72.3637 36.6807V32.288C72.3637 32.2156 72.4076 32.1793 72.4954 32.1793H73.9581C74.3313 32.1534 74.7003 32.2701 74.9893 32.5055C75.1301 32.6503 75.2324 32.8274 75.2873 33.0209C75.3422 33.2144 75.3479 33.4183 75.3039 33.6145C75.2881 33.7101 75.2586 33.8028 75.2161 33.89C75.1672 33.9869 75.1057 34.077 75.0333 34.1582C74.9453 34.2437 74.844 34.3146 74.7334 34.3684C74.8649 34.4039 74.9855 34.4712 75.0844 34.5641C75.1748 34.6512 75.2513 34.7514 75.3112 34.8613C75.3643 34.9671 75.4036 35.0791 75.4283 35.1947C75.4382 35.3032 75.4382 35.4124 75.4283 35.5209M74.6969 33.3971C74.6993 33.301 74.6825 33.2054 74.6473 33.1158C74.6121 33.0262 74.5594 32.9444 74.492 32.8752C74.4017 32.7988 74.2971 32.741 74.1841 32.7049C74.0711 32.6688 73.9521 32.6553 73.8338 32.665H72.8391V34.1147H73.9435C74.0442 34.1173 74.1442 34.0975 74.2361 34.0567C74.3233 34.0214 74.4027 33.9697 74.4701 33.9045C74.5411 33.839 74.5983 33.7602 74.6383 33.6725C74.6766 33.578 74.6965 33.4772 74.6969 33.3753M74.8358 35.4485C74.8373 35.3424 74.82 35.2369 74.7846 35.1367C74.7572 35.0359 74.7043 34.9436 74.631 34.8685C74.5546 34.7881 74.4626 34.724 74.3604 34.6801C74.2341 34.6337 74.1001 34.6115 73.9655 34.6149H72.8391V36.2748H73.9655C74.1097 36.279 74.2535 36.2569 74.3896 36.2095C74.4934 36.1718 74.5862 36.1096 74.6603 36.0283C74.7241 35.9517 74.7714 35.8629 74.7992 35.7674C74.811 35.6614 74.811 35.5544 74.7992 35.4485" fill="#282828"/>
<path d="M77.2716 36.6083C77.277 36.6332 77.2733 36.6592 77.2613 36.6817C77.2492 36.7042 77.2296 36.7218 77.2058 36.7315L77.0156 36.7822H76.8255C76.7261 36.7848 76.6271 36.7701 76.5329 36.7387C76.4657 36.7148 76.4055 36.675 76.3574 36.6228C76.3111 36.572 76.2807 36.5091 76.2696 36.4416C76.2617 36.3644 76.2617 36.2867 76.2696 36.2096V31.9764C76.2696 31.8967 76.2696 31.8532 76.3867 31.8532H76.6719C76.7029 31.8441 76.736 31.8441 76.767 31.8532C76.767 31.8532 76.767 31.904 76.767 31.9547V36.0356C76.767 36.1589 76.767 36.2313 76.8474 36.2531C76.9329 36.2886 77.0256 36.3035 77.1181 36.2966C77.1912 36.2966 77.2351 36.2966 77.2424 36.3618L77.2716 36.6083Z" fill="#282828"/>
<path d="M80.6294 35.0137C80.628 35.222 80.6157 35.4301 80.5928 35.6371C80.5745 35.8425 80.5148 36.0421 80.4173 36.2242C80.3121 36.4048 80.1607 36.5549 79.9785 36.6592C79.7238 36.7819 79.4422 36.8392 79.1593 36.8259C78.8859 36.8387 78.6138 36.7813 78.3694 36.6592C78.1917 36.5571 78.0452 36.4093 77.9452 36.2315C77.8477 36.0494 77.788 35.8497 77.7697 35.6444C77.7591 35.4343 77.7591 35.2238 77.7697 35.0137C77.7706 34.8293 77.7852 34.6451 77.8135 34.4628C77.8398 34.2651 77.9018 34.0736 77.9964 33.8975C78.1005 33.7228 78.2462 33.576 78.4206 33.4698C78.6577 33.3491 78.9223 33.2917 79.1885 33.3031C79.4547 33.2927 79.7198 33.3423 79.9638 33.4481C80.1453 33.5365 80.2994 33.6717 80.41 33.8395C80.5137 34.0082 80.5832 34.1953 80.6148 34.3904C80.6442 34.5969 80.6588 34.8052 80.6586 35.0137M80.1174 35.0137C80.13 34.8279 80.13 34.6414 80.1174 34.4556C80.1004 34.3144 80.0531 34.1784 79.9785 34.0569C79.9116 33.9518 79.815 33.8686 79.7006 33.8177C79.5513 33.7611 79.3922 33.7339 79.2325 33.738C79.0797 33.7331 78.9277 33.7603 78.7863 33.8177C78.6773 33.8737 78.5842 33.9559 78.5157 34.0569C78.4449 34.1795 78.4 34.3152 78.384 34.4556C78.3714 34.6414 78.3714 34.8279 78.384 35.0137C78.3709 35.1996 78.3709 35.3861 78.384 35.5719C78.3988 35.7126 78.4437 35.8485 78.5157 35.9706C78.5814 36.0758 78.675 36.161 78.7863 36.217C78.9277 36.2745 79.0797 36.3017 79.2325 36.2967C79.3922 36.3008 79.5513 36.2737 79.7006 36.217C79.8144 36.1689 79.9112 36.0881 79.9785 35.9851C80.0519 35.863 80.0991 35.7273 80.1174 35.5864C80.1305 35.3957 80.1305 35.2044 80.1174 35.0137Z" fill="#282828"/>
<path d="M83.7509 36.6662C83.595 36.7321 83.4297 36.7736 83.2609 36.7894C83.0709 36.7993 82.8805 36.7993 82.6904 36.7894C82.4393 36.7985 82.1893 36.7514 81.959 36.6517C81.784 36.5657 81.637 36.4326 81.5349 36.2675C81.4301 36.0947 81.3628 35.9022 81.3374 35.7021C81.3034 35.462 81.2862 35.2198 81.2861 34.9773C81.2884 34.7613 81.3055 34.5458 81.3374 34.3322C81.3619 34.1342 81.4292 33.9438 81.5349 33.774C81.6346 33.6053 81.7821 33.4692 81.959 33.3826C82.1876 33.2768 82.4384 33.2271 82.6904 33.2376H82.9391H83.2243L83.5096 33.2884C83.5954 33.3051 83.6788 33.3318 83.7582 33.3681C83.7742 33.3713 83.7892 33.3783 83.8019 33.3883C83.8146 33.3984 83.8248 33.4113 83.8315 33.4261C83.8389 33.4546 83.8389 33.4845 83.8315 33.5131V33.6726C83.829 33.6898 83.8215 33.7059 83.8098 33.7188C83.798 33.7317 83.7826 33.7408 83.7656 33.745H83.6486L83.1659 33.6943H82.7124C82.5753 33.6904 82.4388 33.7126 82.3101 33.7595C82.2033 33.8027 82.1135 33.879 82.0541 33.977C81.9815 34.0941 81.9342 34.225 81.9152 34.3612C81.8833 34.5577 81.8685 34.7565 81.8713 34.9555C81.8679 35.169 81.8826 35.3824 81.9152 35.5934C81.9353 35.735 81.9851 35.8708 82.0615 35.9921C82.1191 36.0915 82.2095 36.1683 82.3174 36.2096C82.4442 36.2533 82.5782 36.273 82.7124 36.2675H82.9172H83.1732H83.4365H83.6778C83.7115 36.2598 83.7465 36.2598 83.7802 36.2675C83.7951 36.2752 83.8076 36.2866 83.8166 36.3006C83.8256 36.3146 83.8308 36.3307 83.8315 36.3473V36.4995C83.8315 36.5647 83.8314 36.6082 83.7509 36.6444" fill="#282828"/>
<path d="M86.297 33.4552C86.3132 33.4264 86.3356 33.4016 86.3628 33.3827C86.3911 33.3721 86.4223 33.3721 86.4506 33.3827H86.8163C86.8326 33.3809 86.849 33.3842 86.8634 33.392C86.8777 33.3997 86.8894 33.4117 86.8967 33.4262C86.8967 33.4262 86.8967 33.4841 86.8967 33.5204L85.8509 34.7672L87.0358 36.6663C87.0447 36.6777 87.0494 36.6917 87.0494 36.7061C87.0494 36.7206 87.0447 36.7346 87.0358 36.746C87.0297 36.7599 87.0193 36.7716 87.0062 36.7794C86.9931 36.7872 86.9778 36.7907 86.9625 36.7895H86.5968C86.566 36.7995 86.5327 36.7995 86.5018 36.7895L86.4286 36.717L85.4924 35.1948L84.9293 35.8689V36.6953C84.9293 36.775 84.8854 36.8112 84.805 36.8112H84.5124C84.4319 36.8112 84.3881 36.8112 84.3881 36.6953V32.0127C84.3857 31.9959 84.3871 31.9789 84.3925 31.9628C84.3979 31.9468 84.407 31.9321 84.4191 31.9202C84.4312 31.9082 84.4458 31.8992 84.462 31.8939C84.4782 31.8886 84.4955 31.887 84.5124 31.8895H84.805C84.8219 31.887 84.8391 31.8886 84.8553 31.8939C84.8715 31.8992 84.8862 31.9082 84.8983 31.9202C84.9103 31.9321 84.9195 31.9468 84.9249 31.9628C84.9303 31.9789 84.9318 31.9959 84.9293 32.0127V35.1368L85.295 34.6729L86.297 33.4552Z" fill="#282828"/>
<path d="M89.8229 36.6667C89.6643 36.7324 89.4967 36.7739 89.3256 36.7899C89.1356 36.8 88.9451 36.8 88.7551 36.7899C88.5038 36.8007 88.2535 36.7536 88.0237 36.6522C87.8466 36.5663 87.6972 36.4333 87.5921 36.268C87.4874 36.0952 87.4202 35.9026 87.3947 35.7026C87.3633 35.4623 87.3486 35.2201 87.3508 34.9777C87.3506 34.762 87.3653 34.5464 87.3947 34.3326C87.4192 34.1346 87.4865 33.9443 87.5921 33.7745C87.6948 33.6055 87.8448 33.4695 88.0237 33.383C88.2517 33.2756 88.503 33.2258 88.7551 33.2381H89.0038H89.289L89.5743 33.2888C89.6621 33.3066 89.7479 33.3333 89.8302 33.3685C89.8447 33.3732 89.8579 33.3807 89.8692 33.3907C89.8806 33.4007 89.8897 33.4129 89.896 33.4265C89.9035 33.4551 89.9035 33.485 89.896 33.5135V33.673C89.8936 33.6902 89.8861 33.7063 89.8743 33.7192C89.8626 33.7322 89.8473 33.7413 89.8302 33.7455H89.7132L89.2305 33.6947H88.7771C88.64 33.6908 88.5034 33.713 88.3748 33.76C88.2693 33.8052 88.1801 33.881 88.1188 33.9774C88.0492 34.096 88.0021 34.2262 87.9798 34.3616C87.9666 34.5595 87.9666 34.7581 87.9798 34.956C87.966 35.1684 87.966 35.3814 87.9798 35.5938C87.9999 35.7354 88.0498 35.8713 88.1261 35.9925C88.1874 36.0889 88.2766 36.1647 88.3821 36.21C88.5089 36.2538 88.6429 36.2734 88.7771 36.268H88.9891H89.2378H89.5011H89.7425C89.7761 36.2597 89.8113 36.2597 89.8449 36.268C89.8449 36.268 89.8887 36.268 89.896 36.3477V36.4999C89.9054 36.5288 89.9029 36.5601 89.8892 36.5872C89.8756 36.6142 89.8518 36.635 89.8229 36.6449" fill="#282828"/>
<path d="M93.0846 36.7674H92.7922C92.7762 36.7698 92.7599 36.7686 92.7446 36.7636C92.7292 36.7587 92.7153 36.7502 92.7039 36.7389C92.6925 36.7276 92.6839 36.7138 92.6789 36.6986C92.6739 36.6834 92.6726 36.6672 92.6751 36.6514V34.5203C92.6848 34.3973 92.6848 34.2737 92.6751 34.1507C92.6596 34.0678 92.6272 33.9888 92.58 33.9187C92.5356 33.8639 92.4737 33.8256 92.4045 33.81C92.3165 33.7853 92.2254 33.7731 92.1339 33.7738C92.0319 33.7752 91.9307 33.7923 91.834 33.8245L91.4976 33.9332L91.183 34.0637L90.9564 34.1724V36.6514C90.9564 36.7311 90.9124 36.7674 90.8247 36.7674H90.5394C90.4663 36.7674 90.4297 36.7674 90.4297 36.6514V31.9688C90.4297 31.8891 90.4297 31.8456 90.5394 31.8456H90.8247C90.9124 31.8456 90.9564 31.8891 90.9564 31.9688V33.7302L91.1757 33.5998L91.4756 33.4548L91.834 33.3388C91.9562 33.3101 92.0814 33.2955 92.207 33.2953C92.3946 33.2862 92.582 33.3184 92.7556 33.3896C92.8816 33.4482 92.9882 33.5412 93.0628 33.6578C93.1357 33.7847 93.1806 33.9255 93.1944 34.0709C93.2189 34.2414 93.2311 34.4134 93.231 34.5856V36.6442C93.231 36.7239 93.1871 36.7602 93.0993 36.7602" fill="#282828"/>
<path d="M96.2293 36.3906C96.0423 36.4999 95.8494 36.5991 95.6515 36.6878C95.4198 36.7827 95.1708 36.8296 94.9201 36.8255C94.7875 36.8393 94.6534 36.8245 94.5271 36.7819C94.4008 36.7394 94.2854 36.6702 94.1887 36.5791C94.026 36.3735 93.9477 36.1146 93.9694 35.8542C93.9574 35.6945 93.9778 35.5339 94.0293 35.3821C94.0808 35.2302 94.1623 35.0901 94.2692 34.9699C94.5578 34.7527 94.9174 34.6494 95.2785 34.68H96.2293V34.448C96.2415 34.3507 96.2313 34.252 96.1997 34.1591C96.168 34.0662 96.1157 33.9816 96.0465 33.9116C95.8532 33.7961 95.6275 33.7454 95.4029 33.7666H95.1834H94.9274H94.6568H94.4155C94.335 33.7666 94.2838 33.7666 94.2692 33.7014V33.5202C94.2621 33.508 94.2585 33.4943 94.2585 33.4803C94.2585 33.4663 94.2621 33.4526 94.2692 33.4404C94.2944 33.4059 94.3304 33.3804 94.3716 33.3679L94.6276 33.3027L94.9348 33.2592C95.0419 33.252 95.1495 33.252 95.2566 33.2592H95.5419C95.7694 33.2521 95.9966 33.2815 96.2147 33.3462C96.3621 33.3956 96.4934 33.4831 96.595 33.5999C96.6858 33.7128 96.744 33.8482 96.7632 33.9913C96.7791 34.1601 96.7791 34.33 96.7632 34.4987V36.1079C96.7578 36.1609 96.7578 36.2143 96.7632 36.2673C96.758 36.2961 96.758 36.3256 96.7632 36.3544C96.7871 36.3721 96.8145 36.3845 96.8437 36.3906H96.9754C97.0558 36.3906 97.0924 36.3906 97.0924 36.4848V36.6588C97.1026 36.6844 97.1026 36.7129 97.0924 36.7385C97.0779 36.7526 97.0607 36.7637 97.0419 36.7711C97.0231 36.7786 97.003 36.7823 96.9827 36.782H96.734C96.6059 36.7916 96.478 36.7612 96.3683 36.695C96.2779 36.612 96.2229 36.4979 96.2147 36.3761L96.2293 36.3906ZM96.2293 35.1294H95.1907C95.0088 35.122 94.8293 35.1728 94.6788 35.2743C94.6085 35.3498 94.5552 35.4393 94.5224 35.5367C94.4896 35.6342 94.4781 35.7375 94.4886 35.8397C94.4796 35.9106 94.4853 35.9825 94.5054 36.051C94.5255 36.1196 94.5597 36.1834 94.6057 36.2384C94.7293 36.3238 94.8799 36.3624 95.0298 36.3471C95.1284 36.3453 95.2265 36.3332 95.3224 36.3109C95.4316 36.2862 95.539 36.2547 95.6442 36.2166L95.9587 36.0861L96.2293 35.9485V35.1294Z" fill="#282828"/>
<path d="M98.3354 32.4835C98.3394 32.5617 98.3217 32.6394 98.2842 32.7083C98.2842 32.7662 98.1598 32.7952 98.0355 32.7952C97.9111 32.7952 97.8087 32.7952 97.7795 32.701C97.7436 32.634 97.7249 32.5594 97.7249 32.4835C97.7249 32.4077 97.7436 32.3331 97.7795 32.2661C97.8128 32.2359 97.8522 32.2132 97.8951 32.1994C97.938 32.1857 97.9833 32.1812 98.0281 32.1864C98.1525 32.1864 98.233 32.1864 98.2696 32.2661C98.3114 32.3308 98.3318 32.4068 98.328 32.4835M98.2842 36.6732C98.2842 36.753 98.2842 36.7892 98.1745 36.7892H97.8819C97.8014 36.7892 97.7575 36.7892 97.7575 36.6732V33.5128C97.7575 33.4621 97.7575 33.4259 97.7575 33.4114C97.7886 33.4023 97.8216 33.4023 97.8526 33.4114H98.1452C98.2183 33.4114 98.2549 33.4549 98.2549 33.5346L98.2842 36.6732Z" fill="#282828"/>
<path d="M101.868 36.7684H101.575C101.559 36.7709 101.543 36.7696 101.528 36.7647C101.512 36.7597 101.498 36.7512 101.487 36.7399C101.475 36.7286 101.467 36.7148 101.462 36.6996C101.457 36.6844 101.456 36.6683 101.458 36.6525V34.5794C101.467 34.4491 101.467 34.3183 101.458 34.1879C101.443 34.0982 101.41 34.0122 101.363 33.9343C101.32 33.8752 101.258 33.832 101.187 33.811C101.097 33.7859 101.003 33.7737 100.91 33.7748C100.81 33.7764 100.711 33.7935 100.617 33.8255L100.281 33.9343L99.9587 34.0647L99.7393 34.1735V36.6525C99.7393 36.7322 99.6954 36.7684 99.6076 36.7684H99.3224C99.3064 36.7709 99.2901 36.7696 99.2748 36.7647C99.2594 36.7597 99.2456 36.7512 99.2342 36.7399C99.2228 36.7286 99.2142 36.7148 99.2092 36.6996C99.2042 36.6844 99.2028 36.6683 99.2053 36.6525V33.4921C99.2031 33.476 99.2045 33.4596 99.2095 33.4442C99.2145 33.4287 99.2229 33.4146 99.2342 33.4028C99.2454 33.391 99.2592 33.3818 99.2744 33.3759C99.2897 33.3701 99.306 33.3676 99.3224 33.3688H99.6076C99.6387 33.3598 99.6717 33.3598 99.7027 33.3688C99.7104 33.3834 99.7144 33.3995 99.7144 33.416C99.7144 33.4324 99.7104 33.4485 99.7027 33.4631V33.7095L99.9148 33.5791L100.215 33.4341L100.566 33.3181C100.688 33.2894 100.813 33.2748 100.939 33.2747C101.126 33.2663 101.313 33.2984 101.487 33.3688C101.613 33.4274 101.72 33.5205 101.794 33.6371C101.864 33.7653 101.909 33.9055 101.926 34.0502C101.951 34.2207 101.963 34.3927 101.963 34.5649V36.6235C101.963 36.7032 101.919 36.7394 101.831 36.7394" fill="#282828"/>
<path d="M100.566 7.38217H99.2717C99.151 7.38217 99.0315 7.35852 98.9201 7.31253C98.8087 7.26655 98.7076 7.19915 98.6226 7.11424C98.5376 7.02934 98.4705 6.92859 98.4249 6.81782C98.3794 6.70706 98.3565 6.58844 98.3575 6.46884V5.19309C98.3575 4.95278 98.4538 4.72235 98.6252 4.55242C98.7967 4.3825 99.0292 4.28702 99.2717 4.28702H100.566C100.809 4.28702 101.041 4.3825 101.213 4.55242C101.384 4.72235 101.481 4.95278 101.481 5.19309V6.46884C101.481 6.58844 101.459 6.70706 101.413 6.81782C101.368 6.92859 101.3 7.02934 101.215 7.11424C101.13 7.19915 101.029 7.26655 100.918 7.31253C100.806 7.35852 100.687 7.38217 100.566 7.38217Z" fill="#282828"/>
<path d="M36.7669 10.4261C35.7109 9.39145 34.3891 8.66334 32.9449 8.32086C31.5007 7.97837 29.9895 8.03463 28.5753 8.48353C28.5062 6.92894 27.9796 5.42836 27.0604 4.16678C26.1412 2.9052 24.8696 1.93777 23.4023 1.38371C21.9351 0.829648 20.3364 0.713166 18.8032 1.04867C17.27 1.38417 15.8693 2.15698 14.7739 3.27181L2.41337 15.5944L2.26713 15.7394C0.79366 17.2554 -0.0210134 19.2837 -0.00186728 21.3886C0.0172788 23.4934 0.868727 25.5069 2.36953 26.9964C3.1163 27.7395 4.00436 28.3284 4.98235 28.729C5.96034 29.1297 7.00878 29.3341 8.06702 29.3304C8.91105 29.3314 9.75008 29.2017 10.5538 28.9462C10.6418 30.4915 11.1793 31.9784 12.1014 33.2276C13.0234 34.4767 14.2905 35.4346 15.7499 35.9857C17.2092 36.5368 18.7983 36.6575 20.3253 36.3331C21.8522 36.0088 23.2519 35.2533 24.3551 34.1579L36.7157 21.8354L36.8693 21.6831C38.341 20.1662 39.1545 18.1383 39.1354 16.034C39.1163 13.9297 38.2659 11.9165 36.7669 10.4261ZM17.1802 5.92477L17.3776 5.71458C18.2225 4.87755 19.3683 4.40732 20.5629 4.40732C21.7575 4.40732 22.9032 4.87755 23.7481 5.71458C24.5931 6.55314 25.0678 7.68981 25.0678 8.87494C25.0678 10.0601 24.5931 11.1967 23.7481 12.0353L23.4263 12.3542C22.707 12.8889 21.8314 13.1765 20.9323 13.1733C20.7264 13.1736 20.5208 13.1566 20.3178 13.1226L11.7533 11.3395L17.1802 5.92477ZM21.9488 31.505L21.7588 31.7152C21.3414 32.1312 20.8455 32.4616 20.2993 32.6876C19.7531 32.9136 19.1673 33.0309 18.5754 33.0326C17.9835 33.0342 17.3971 32.9204 16.8496 32.6974C16.3021 32.4745 15.8043 32.1469 15.3846 31.7333C14.9649 31.3197 14.6315 30.8282 14.4034 30.2869C14.1753 29.7456 14.0571 29.1651 14.0554 28.5785C14.0537 27.9919 14.1686 27.4107 14.3935 26.8681C14.6184 26.3255 14.949 25.8321 15.3663 25.4162L15.6882 25.0972C16.4103 24.5689 17.2846 24.2843 18.1822 24.2854C18.3878 24.2862 18.593 24.3007 18.7966 24.3289L27.3685 26.112L21.9488 31.505ZM34.463 19.0519L34.0827 19.4288L30.2867 23.2126L20.4495 21.0381L18.8551 20.8423C18.4577 20.7872 18.0568 20.7605 17.6556 20.7626C16.1936 20.675 14.7536 21.1473 13.6329 22.0818L12.9015 22.8067L12.7333 22.9951L11.0804 24.6478C10.2375 25.4879 9.09249 25.9618 7.89712 25.9652C6.70175 25.9686 5.55397 25.5013 4.70629 24.666C3.85861 23.8307 3.3805 22.6958 3.37707 21.5111C3.37364 20.3264 3.84516 19.1889 4.68799 18.3488L5.06833 17.9719L8.87162 14.1881L18.7015 16.3627L20.296 16.5657C20.6962 16.6172 21.0991 16.6439 21.5027 16.6454C22.9622 16.7312 24.3993 16.259 25.518 15.3262L26.2494 14.6013L26.425 14.4201L28.0852 12.7674C28.4996 12.3391 28.9961 11.9969 29.5454 11.7609C30.0948 11.5248 30.6861 11.3997 31.2848 11.3927C31.8835 11.3858 32.4776 11.4973 33.0324 11.7205C33.5872 11.9438 34.0915 12.2744 34.5159 12.693C34.9403 13.1116 35.2762 13.6099 35.504 14.1587C35.7318 14.7075 35.8469 15.2958 35.8427 15.8892C35.8385 16.4826 35.7149 17.0692 35.4792 17.6147C35.2436 18.1602 34.9007 18.6538 34.4704 19.0664" fill="#282828"/>
</g>
<defs>
<clipPath id="clip0_121_712">
<rect width="102" height="37.0909" fill="white" transform="translate(0 0.909088)"/>
</clipPath>
</defs>
</svg>
